<?xml version="1.0" encoding="utf-8"?>
<!-- Generator: Adobe Illustrator 16.0.0, SVG Export Plug-In . SVG Version: 6.00 Build 0)  -->
<!DOCTYPE svg PUBLIC "-//W3C//DTD SVG 1.1//EN" "http://www.w3.org/Graphics/SVG/1.1/DTD/svg11.dtd">
<svg version="1.1" id="Capa_1" xmlns="http://www.w3.org/2000/svg" xmlns:xlink="http://www.w3.org/1999/xlink" x="0px" y="0px"
	 width="20px" height="20px" viewBox="0 0 20 20" enable-background="new 0 0 20 20" xml:space="preserve">
<g>
	<g>
		<path fill="#DADADA" d="M13.481,17.639H6.515c-2.029,0-3.682-1.65-3.682-3.681V6.042c0-2.029,1.652-3.682,3.682-3.682h6.967
			c2.031,0,3.685,1.652,3.685,3.682v7.916C17.166,15.988,15.513,17.639,13.481,17.639z M6.515,3.39c-1.462,0-2.652,1.19-2.652,2.652
			v7.916c0,1.464,1.19,2.653,2.652,2.653h6.967c1.463,0,2.652-1.189,2.652-2.653V6.042c0-1.462-1.189-2.652-2.652-2.652H6.515z"/>
	</g>
	<g>
		<path fill="#DADADA" d="M9.998,13.614c-1.992,0-3.612-1.621-3.612-3.613c0-1.992,1.62-3.613,3.612-3.613
			c1.995,0,3.615,1.621,3.615,3.613C13.613,11.993,11.993,13.614,9.998,13.614z M9.998,7.417c-1.423,0-2.583,1.16-2.583,2.584
			c0,1.425,1.16,2.582,2.583,2.582c1.426,0,2.586-1.156,2.586-2.582C12.584,8.578,11.424,7.417,9.998,7.417z"/>
	</g>
	<g>
		<circle fill="#DADADA" cx="13.886" cy="5.644" r="0.79"/>
	</g>
</g>
</svg>
